<svg xmlns="http://www.w3.org/2000/svg" xmlns:xlink="http://www.w3.org/1999/xlink" width="500" zoomAndPan="magnify" viewBox="0 0 375 374.999991" height="500" preserveAspectRatio="xMidYMid meet" version="1.0"><defs><g/></defs><path fill="#f5001e" d="M 156.84375 262.144531 C 144.109375 230.726562 141.3125 203.625 164.078125 179.363281 C 181.152344 157.085938 225.753906 134.886719 229.617188 106.753906 C 237.625 48.964844 162.886719 64.03125 168.867188 105.917969 C 171.929688 127.273438 163.097656 136.03125 147.207031 143.457031 C 125.636719 153.574219 110.617188 153.332031 108.5625 99.390625 C 107.167969 62.363281 135.222656 28.824219 171.257812 22.304688 C 214.710938 10.441406 281.925781 30.730469 296.863281 75.6875 C 307.898438 108.179688 292.789062 147.921875 262.285156 169.683594 C 214.65625 203.695312 193.648438 212.285156 193.5625 253.539062 C 193.5 273.300781 164.554688 281.132812 156.84375 262.144531 Z M 156.84375 262.144531 " fill-opacity="1" fill-rule="nonzero"/><path fill="#f5001e" d="M 220.488281 315.625 C 223.222656 325.464844 222.6875 336.601562 217.058594 345.367188 C 204.886719 364.4375 182.722656 362.0625 165.234375 354.773438 C 150.382812 348.613281 144.4375 330.15625 150.976562 315.945312 C 158.808594 298.949219 172.015625 290.378906 186.921875 291.007812 C 206.851562 291.84375 215.632812 298.117188 220.488281 315.625 Z M 220.488281 315.625 " fill-opacity="1" fill-rule="nonzero"/><g fill="#fcc636" fill-opacity="1"><g transform="translate(2.450635, 206.583707)"><g><path d="M 54.671875 -111.71875 C 55.648438 -111.84375 57.078125 -111.929688 58.953125 -111.984375 C 60.835938 -112.046875 63.175781 -112.019531 65.96875 -111.90625 C 69.738281 -111.78125 73.109375 -111.59375 76.078125 -111.34375 C 79.054688 -111.101562 81.820312 -110.5 84.375 -109.53125 C 86.925781 -108.5625 89.382812 -107.101562 91.75 -105.15625 C 94.125 -103.21875 96.46875 -100.484375 98.78125 -96.953125 C 103.519531 -89.660156 106.492188 -81.097656 107.703125 -71.265625 C 107.828125 -70.410156 107.921875 -69.222656 107.984375 -67.703125 C 108.046875 -66.179688 108.078125 -64.570312 108.078125 -62.875 C 108.078125 -61.175781 108.046875 -59.566406 107.984375 -58.046875 C 107.921875 -56.523438 107.828125 -55.398438 107.703125 -54.671875 C 107.460938 -52.003906 107.035156 -49.453125 106.421875 -47.015625 C 105.816406 -44.585938 105.03125 -42.160156 104.0625 -39.734375 C 103.457031 -37.660156 103.15625 -36.625 103.15625 -36.625 C 103.15625 -36.144531 105.523438 -34.328125 110.265625 -31.171875 C 111.359375 -30.441406 112.328125 -29.679688 113.171875 -28.890625 C 114.023438 -28.097656 114.570312 -27.335938 114.8125 -26.609375 C 115.664062 -24.785156 116.03125 -22.535156 115.90625 -19.859375 C 115.90625 -17.796875 115.359375 -15.640625 114.265625 -13.390625 C 113.171875 -11.148438 111.835938 -9.359375 110.265625 -8.015625 C 107.222656 -5.097656 103.941406 -3.945312 100.421875 -4.5625 C 99.691406 -4.800781 98.535156 -5.285156 96.953125 -6.015625 C 90.753906 -9.296875 87.472656 -10.9375 87.109375 -10.9375 C 87.234375 -10.9375 86.8125 -10.570312 85.84375 -9.84375 C 81.707031 -5.707031 77.054688 -2.972656 71.890625 -1.640625 C 66.734375 -0.304688 61.359375 0.359375 55.765625 0.359375 C 49.328125 0.359375 43.34375 -0.367188 37.8125 -1.828125 C 32.289062 -3.285156 27.035156 -6.441406 22.046875 -11.296875 C 19.015625 -14.335938 16.554688 -17.707031 14.671875 -21.40625 C 12.785156 -25.113281 11.296875 -29.03125 10.203125 -33.15625 C 9.109375 -37.289062 8.378906 -41.484375 8.015625 -45.734375 C 7.648438 -49.992188 7.46875 -54.128906 7.46875 -58.140625 C 7.46875 -59.710938 7.53125 -61.195312 7.65625 -62.59375 C 7.78125 -64 8.023438 -65.367188 8.390625 -66.703125 C 8.992188 -69.859375 9.660156 -72.742188 10.390625 -75.359375 C 11.117188 -77.972656 12.03125 -80.429688 13.125 -82.734375 C 14.21875 -85.046875 15.550781 -87.296875 17.125 -89.484375 C 18.707031 -91.671875 20.59375 -93.921875 22.78125 -96.234375 C 27.519531 -100.722656 32.410156 -104.179688 37.453125 -106.609375 C 42.492188 -109.046875 48.234375 -110.75 54.671875 -111.71875 Z M 83.109375 -106.984375 C 81.765625 -107.710938 80.726562 -107.769531 80 -107.15625 C 79.757812 -106.789062 79.640625 -106.125 79.640625 -105.15625 C 79.640625 -104.1875 79.703125 -103.519531 79.828125 -103.15625 C 80.671875 -101.570312 82.976562 -100.050781 86.75 -98.59375 C 87.71875 -98.113281 88.78125 -97.875 89.9375 -97.875 C 91.09375 -97.875 91.789062 -97.929688 92.03125 -98.046875 C 92.28125 -98.171875 92.128906 -98.6875 91.578125 -99.59375 C 91.035156 -100.507812 90.398438 -101.269531 89.671875 -101.875 C 87.117188 -104.425781 84.929688 -106.128906 83.109375 -106.984375 Z M 63.96875 -91.671875 C 61.90625 -91.910156 59.960938 -91.726562 58.140625 -91.125 C 56.316406 -90.519531 54.554688 -89.671875 52.859375 -88.578125 C 49.328125 -86.503906 46.253906 -83.460938 43.640625 -79.453125 C 41.035156 -75.453125 39.304688 -71.503906 38.453125 -67.609375 C 36.628906 -57.773438 36.445312 -48.90625 37.90625 -41 C 38.507812 -38.082031 39.144531 -35.5 39.8125 -33.25 C 40.488281 -31.007812 41.3125 -29.097656 42.28125 -27.515625 C 43.5 -25.085938 45.382812 -23.328125 47.9375 -22.234375 C 50.488281 -21.140625 53.039062 -20.59375 55.59375 -20.59375 C 58.257812 -20.59375 60.773438 -21.140625 63.140625 -22.234375 C 65.515625 -23.328125 67.367188 -24.785156 68.703125 -26.609375 C 66.765625 -28.429688 64.851562 -30.617188 62.96875 -33.171875 C 61.082031 -35.722656 60.203125 -38.820312 60.328125 -42.46875 C 60.441406 -45.863281 61.625 -48.195312 63.875 -49.46875 C 66.125 -50.75 68.460938 -51.515625 70.890625 -51.765625 C 72.234375 -51.878906 73.632812 -51.90625 75.09375 -51.84375 C 76.550781 -51.789062 77.644531 -51.703125 78.375 -51.578125 L 78 -61.234375 C 77.882812 -63.296875 77.644531 -65.875 77.28125 -68.96875 C 76.914062 -72.070312 76.304688 -75.140625 75.453125 -78.171875 C 74.597656 -81.210938 73.441406 -83.914062 71.984375 -86.28125 C 70.523438 -88.65625 68.644531 -90.207031 66.34375 -90.9375 C 65.125 -91.425781 64.332031 -91.671875 63.96875 -91.671875 Z M 63.96875 -91.671875 "/></g></g></g><g fill="#5324fd" fill-opacity="1"><g transform="translate(119.753903, 308.264434)"><g><path d="M 25.21875 -103.4375 C 27.132812 -103.539062 28.828125 -103.59375 30.296875 -103.59375 C 31.765625 -103.59375 32.953125 -103.484375 33.859375 -103.265625 C 34.753906 -103.035156 35.625 -102.722656 36.46875 -102.328125 C 37.320312 -101.929688 38.085938 -101.394531 38.765625 -100.71875 C 40.566406 -98.570312 41.695312 -95.640625 42.15625 -91.921875 C 42.375 -91.015625 42.507812 -88.191406 42.5625 -83.453125 C 42.625 -78.710938 42.65625 -72.054688 42.65625 -63.484375 C 42.539062 -54.898438 42.425781 -47.785156 42.3125 -42.140625 C 42.207031 -36.503906 42.097656 -32.273438 41.984375 -29.453125 C 41.867188 -27.535156 41.78125 -25.757812 41.71875 -24.125 C 41.664062 -22.488281 41.640625 -20.9375 41.640625 -19.46875 C 41.640625 -16.53125 41.582031 -14.835938 41.46875 -14.390625 C 41.351562 -13.828125 41.210938 -13.148438 41.046875 -12.359375 C 40.878906 -11.566406 40.679688 -10.550781 40.453125 -9.3125 C 40.234375 -7.84375 39.976562 -6.710938 39.6875 -5.921875 C 39.40625 -5.128906 39.210938 -4.566406 39.109375 -4.234375 C 37.753906 -0.960938 34.03125 0.671875 27.9375 0.671875 C 25.226562 0.671875 22.347656 0.304688 19.296875 -0.421875 C 16.253906 -1.160156 13.882812 -2.710938 12.1875 -5.078125 C 10.945312 -6.660156 10.15625 -10.21875 9.8125 -15.75 L 9.8125 -42.484375 C 9.8125 -49.929688 9.8125 -55.851562 9.8125 -60.25 C 9.8125 -64.65625 9.925781 -67.484375 10.15625 -68.734375 C 10.269531 -70.191406 10.328125 -71.820312 10.328125 -73.625 C 10.328125 -75.4375 10.382812 -77.359375 10.5 -79.390625 C 10.613281 -82.441406 10.722656 -85.09375 10.828125 -87.34375 C 10.941406 -89.601562 11.113281 -91.523438 11.34375 -93.109375 C 11.570312 -94.578125 11.738281 -95.703125 11.84375 -96.484375 C 12.070312 -97.953125 12.523438 -99.195312 13.203125 -100.21875 C 13.429688 -100.78125 13.941406 -101.175781 14.734375 -101.40625 C 15.972656 -101.96875 17.46875 -102.390625 19.21875 -102.671875 C 20.96875 -102.953125 22.96875 -103.207031 25.21875 -103.4375 Z M 34.03125 -99.53125 C 33.457031 -99.875 32.691406 -100.015625 31.734375 -99.953125 C 30.773438 -99.898438 30.128906 -99.757812 29.796875 -99.53125 C 28.773438 -98.851562 28.4375 -98.066406 28.78125 -97.171875 C 28.894531 -96.710938 30.132812 -96.203125 32.5 -95.640625 C 33.96875 -95.421875 34.867188 -95.476562 35.203125 -95.8125 C 35.773438 -96.375 35.914062 -97.019531 35.625 -97.75 C 35.34375 -98.488281 34.8125 -99.082031 34.03125 -99.53125 Z M 34.03125 -99.53125 "/></g></g></g><g fill="#fcc636" fill-opacity="1"><g transform="translate(106.894488, 192.354513)"><g><path d="M 32.625 -102.59375 C 31.8125 -102.707031 30.648438 -102.878906 29.140625 -103.109375 L 26.875 -103.109375 L 27.046875 -102.59375 C 27.628906 -101.070312 28.148438 -100.140625 28.609375 -99.796875 C 29.890625 -98.742188 31.171875 -98.21875 32.453125 -98.21875 C 33.378906 -98.21875 34.25 -98.507812 35.0625 -99.09375 C 35.644531 -99.675781 35.703125 -100.285156 35.234375 -100.921875 C 34.773438 -101.566406 33.90625 -102.125 32.625 -102.59375 Z M 93.515625 -108 C 93.742188 -108 94.320312 -108 95.25 -108 C 96.1875 -108 97.175781 -107.96875 98.21875 -107.90625 C 99.269531 -107.851562 100.257812 -107.796875 101.1875 -107.734375 C 102.125 -107.671875 102.707031 -107.582031 102.9375 -107.46875 C 106.539062 -106.65625 108.867188 -104.445312 109.921875 -100.84375 C 110.035156 -100.375 110.175781 -98.742188 110.34375 -95.953125 C 110.519531 -93.160156 110.609375 -88.972656 110.609375 -83.390625 C 110.609375 -61.640625 109.390625 -45.707031 106.953125 -35.59375 C 105.898438 -31.175781 104.441406 -27.132812 102.578125 -23.46875 C 100.722656 -19.800781 98.285156 -16.335938 95.265625 -13.078125 C 92.703125 -9.828125 89.644531 -7.300781 86.09375 -5.5 C 82.550781 -3.695312 78.769531 -2.328125 74.75 -1.390625 C 70.738281 -0.460938 66.640625 0.113281 62.453125 0.34375 C 58.265625 0.582031 54.253906 0.703125 50.421875 0.703125 C 45.066406 0.703125 40.265625 -0.109375 36.015625 -1.734375 C 31.773438 -3.367188 28.054688 -5.664062 24.859375 -8.625 C 21.660156 -11.59375 18.957031 -15.082031 16.75 -19.09375 C 14.539062 -23.113281 12.796875 -27.566406 11.515625 -32.453125 C 10.703125 -35.128906 10.148438 -37.515625 9.859375 -39.609375 C 9.566406 -41.703125 9.363281 -43.617188 9.25 -45.359375 L 9.25 -68.734375 C 9.25 -82.460938 9.421875 -89.5625 9.765625 -90.03125 C 9.878906 -90.375 9.992188 -90.863281 10.109375 -91.5 C 10.234375 -92.144531 10.296875 -92.988281 10.296875 -94.03125 C 10.523438 -98.6875 11.453125 -102.0625 13.078125 -104.15625 C 14.710938 -106.25 18.03125 -107.296875 23.03125 -107.296875 C 24.3125 -107.296875 25.910156 -107.238281 27.828125 -107.125 C 29.742188 -107.007812 31.632812 -106.75 33.5 -106.34375 C 35.363281 -105.9375 37.078125 -105.382812 38.640625 -104.6875 C 40.210938 -103.988281 41.289062 -103.054688 41.875 -101.890625 C 42.21875 -101.304688 42.503906 -100.632812 42.734375 -99.875 C 42.972656 -99.125 43.09375 -98.109375 43.09375 -96.828125 C 43.09375 -95.660156 43.09375 -93.390625 43.09375 -90.015625 C 43.09375 -86.648438 43.117188 -82.753906 43.171875 -78.328125 C 43.234375 -73.910156 43.265625 -69.285156 43.265625 -64.453125 C 43.265625 -59.628906 43.289062 -55.210938 43.34375 -51.203125 C 43.40625 -47.191406 43.46875 -43.847656 43.53125 -41.171875 C 43.59375 -38.492188 43.625 -37.15625 43.625 -37.15625 C 44.550781 -32.738281 46.347656 -29.6875 49.015625 -28 C 51.691406 -26.3125 55.125 -25.46875 59.3125 -25.46875 C 62.226562 -25.46875 64.816406 -25.988281 67.078125 -27.03125 C 69.347656 -28.082031 71.359375 -29.773438 73.109375 -32.109375 C 73.804688 -32.921875 74.441406 -34.171875 75.015625 -35.859375 C 75.597656 -37.546875 76.066406 -39.492188 76.421875 -41.703125 C 76.878906 -43.671875 77.164062 -46.285156 77.28125 -49.546875 C 77.40625 -52.804688 77.523438 -56.703125 77.640625 -61.234375 C 77.867188 -72.171875 78.007812 -80.863281 78.0625 -87.3125 C 78.125 -93.769531 78.273438 -98.164062 78.515625 -100.5 C 78.628906 -101.539062 78.800781 -102.4375 79.03125 -103.1875 C 79.269531 -103.945312 79.796875 -104.617188 80.609375 -105.203125 C 81.421875 -105.671875 82.988281 -106.109375 85.3125 -106.515625 C 87.632812 -106.921875 90.367188 -107.414062 93.515625 -108 Z M 93.515625 -108 "/></g></g></g><g fill="#fcc636" fill-opacity="1"><g transform="translate(215.10065, 211.058446)"><g><path d="M 27.15625 -111.359375 C 29.21875 -111.472656 31.035156 -111.53125 32.609375 -111.53125 C 34.191406 -111.53125 35.472656 -111.410156 36.453125 -111.171875 C 37.421875 -110.929688 38.359375 -110.597656 39.265625 -110.171875 C 40.179688 -109.742188 41.003906 -109.164062 41.734375 -108.4375 C 43.679688 -106.125 44.894531 -102.96875 45.375 -98.96875 C 45.625 -97.988281 45.773438 -94.945312 45.828125 -89.84375 C 45.890625 -84.738281 45.921875 -77.570312 45.921875 -68.34375 C 45.804688 -59.113281 45.6875 -51.457031 45.5625 -45.375 C 45.4375 -39.300781 45.316406 -34.75 45.203125 -31.71875 C 45.078125 -29.644531 44.984375 -27.726562 44.921875 -25.96875 C 44.859375 -24.207031 44.828125 -22.535156 44.828125 -20.953125 C 44.828125 -17.796875 44.769531 -15.972656 44.65625 -15.484375 C 44.53125 -14.878906 44.375 -14.148438 44.1875 -13.296875 C 44.007812 -12.453125 43.800781 -11.363281 43.5625 -10.03125 C 43.3125 -8.445312 43.035156 -7.226562 42.734375 -6.375 C 42.429688 -5.53125 42.21875 -4.925781 42.09375 -4.5625 C 40.632812 -1.03125 36.628906 0.734375 30.078125 0.734375 C 27.160156 0.734375 24.0625 0.335938 20.78125 -0.453125 C 17.5 -1.242188 14.945312 -2.914062 13.125 -5.46875 C 11.789062 -7.164062 10.941406 -10.992188 10.578125 -16.953125 L 10.578125 -45.75 C 10.578125 -53.757812 10.578125 -60.132812 10.578125 -64.875 C 10.578125 -69.613281 10.695312 -72.65625 10.9375 -74 C 11.0625 -75.570312 11.125 -77.328125 11.125 -79.265625 C 11.125 -81.210938 11.179688 -83.28125 11.296875 -85.46875 C 11.421875 -88.75 11.539062 -91.601562 11.65625 -94.03125 C 11.78125 -96.46875 11.960938 -98.535156 12.203125 -100.234375 C 12.453125 -101.816406 12.632812 -103.03125 12.75 -103.875 C 13 -105.457031 13.488281 -106.796875 14.21875 -107.890625 C 14.457031 -108.492188 15.003906 -108.921875 15.859375 -109.171875 C 17.191406 -109.773438 18.800781 -110.226562 20.6875 -110.53125 C 22.570312 -110.832031 24.726562 -111.109375 27.15625 -111.359375 Z M 36.625 -107.15625 C 36.019531 -107.519531 35.203125 -107.671875 34.171875 -107.609375 C 33.140625 -107.554688 32.441406 -107.40625 32.078125 -107.15625 C 30.984375 -106.425781 30.617188 -105.578125 30.984375 -104.609375 C 31.109375 -104.117188 32.441406 -103.570312 34.984375 -102.96875 C 36.566406 -102.726562 37.539062 -102.789062 37.90625 -103.15625 C 38.507812 -103.757812 38.660156 -104.457031 38.359375 -105.25 C 38.054688 -106.039062 37.476562 -106.675781 36.625 -107.15625 Z M 36.625 -107.15625 "/></g></g></g><g fill="#fcc636" fill-opacity="1"><g transform="translate(257.892146, 199.273788)"><g><path d="M 56.140625 -109.53125 C 59.535156 -109.894531 64.453125 -109.894531 70.890625 -109.53125 L 80.734375 -109.53125 L 85.296875 -108.984375 C 91.734375 -108.015625 95.742188 -107.164062 97.328125 -106.4375 C 98.785156 -105.582031 99.96875 -103.878906 100.875 -101.328125 C 101.789062 -98.773438 102.25 -95.738281 102.25 -92.21875 C 102.25 -89.175781 101.757812 -86.742188 100.78125 -84.921875 C 100.664062 -84.441406 100.085938 -83.441406 99.046875 -81.921875 C 98.015625 -80.398438 96.800781 -78.726562 95.40625 -76.90625 C 94.007812 -75.082031 92.703125 -73.378906 91.484375 -71.796875 C 90.273438 -70.222656 89.425781 -69.132812 88.9375 -68.53125 C 87.238281 -66.457031 85.113281 -63.960938 82.5625 -61.046875 C 80.007812 -58.140625 76.910156 -54.554688 73.265625 -50.296875 C 68.765625 -44.953125 65.328125 -40.851562 62.953125 -38 C 60.585938 -35.144531 59.222656 -33.351562 58.859375 -32.625 L 58.140625 -30.984375 L 59.046875 -30.796875 C 59.773438 -30.554688 61.84375 -30.375 65.25 -30.25 C 66.945312 -30.25 68.3125 -30.25 69.34375 -30.25 C 70.375 -30.25 71.015625 -30.128906 71.265625 -29.890625 C 71.503906 -29.765625 71.988281 -29.703125 72.71875 -29.703125 C 73.445312 -29.703125 74.421875 -29.644531 75.640625 -29.53125 C 76.609375 -29.40625 77.515625 -29.34375 78.359375 -29.34375 C 79.210938 -29.34375 80.003906 -29.28125 80.734375 -29.15625 C 83.410156 -29.15625 86.113281 -29.0625 88.84375 -28.875 C 91.582031 -28.695312 94.226562 -28.242188 96.78125 -27.515625 C 98.113281 -26.910156 99.082031 -26.125 99.6875 -25.15625 C 100.539062 -24.175781 101.03125 -23.265625 101.15625 -22.421875 C 101.632812 -19.617188 101.628906 -16.820312 101.140625 -14.03125 C 100.660156 -11.238281 99.691406 -9.234375 98.234375 -8.015625 C 95.554688 -5.585938 91.363281 -3.890625 85.65625 -2.921875 C 80.550781 -2.304688 75.445312 -1.90625 70.34375 -1.71875 C 65.238281 -1.539062 60.140625 -1.453125 55.046875 -1.453125 C 52.734375 -1.335938 49.90625 -1.28125 46.5625 -1.28125 C 43.21875 -1.28125 39.300781 -1.28125 34.8125 -1.28125 C 31.039062 -1.394531 28.03125 -1.453125 25.78125 -1.453125 C 23.539062 -1.453125 22.054688 -1.453125 21.328125 -1.453125 C 19.984375 -1.453125 18.644531 -1.816406 17.3125 -2.546875 C 14.757812 -3.765625 12.570312 -5.710938 10.75 -8.390625 C 9.050781 -10.566406 8.050781 -12.992188 7.75 -15.671875 C 7.445312 -18.347656 7.78125 -20.78125 8.75 -22.96875 C 9.601562 -24.664062 10.753906 -26.242188 12.203125 -27.703125 C 12.691406 -28.304688 13.117188 -28.820312 13.484375 -29.25 C 13.847656 -29.675781 14.273438 -30.191406 14.765625 -30.796875 C 15.492188 -31.890625 16.40625 -33.039062 17.5 -34.25 C 18.59375 -35.46875 20.289062 -37.597656 22.59375 -40.640625 C 26.125 -45.015625 29.34375 -49.050781 32.25 -52.75 C 35.164062 -56.457031 37.84375 -59.710938 40.28125 -62.515625 C 41.851562 -64.335938 43.273438 -65.976562 44.546875 -67.4375 C 45.828125 -68.894531 46.957031 -70.289062 47.9375 -71.625 C 48.664062 -72.351562 49.332031 -73.050781 49.9375 -73.71875 C 50.539062 -74.382812 51.148438 -75.023438 51.765625 -75.640625 C 54.796875 -78.910156 56.738281 -82.066406 57.59375 -85.109375 L 58.140625 -85.65625 L 57.40625 -85.65625 C 57.164062 -85.78125 55.707031 -85.71875 53.03125 -85.46875 C 50.601562 -85.226562 47.867188 -85.046875 44.828125 -84.921875 C 41.796875 -84.804688 39.0625 -84.75 36.625 -84.75 C 35.894531 -84.5 34.679688 -84.34375 32.984375 -84.28125 C 31.285156 -84.226562 29.039062 -84.203125 26.25 -84.203125 C 20.53125 -83.953125 17.1875 -83.953125 16.21875 -84.203125 C 13.425781 -85.046875 11.421875 -86.503906 10.203125 -88.578125 C 9.472656 -89.910156 8.988281 -91.363281 8.75 -92.9375 C 8.507812 -94.519531 8.476562 -96.070312 8.65625 -97.59375 C 8.84375 -99.113281 9.207031 -100.539062 9.75 -101.875 C 10.300781 -103.207031 11.0625 -104.300781 12.03125 -105.15625 C 13.601562 -106.976562 16.457031 -107.953125 20.59375 -108.078125 C 21.6875 -108.078125 22.597656 -108.078125 23.328125 -108.078125 C 24.054688 -108.078125 24.722656 -108.195312 25.328125 -108.4375 C 25.941406 -108.5625 27.1875 -108.625 29.0625 -108.625 C 30.945312 -108.625 33.285156 -108.679688 36.078125 -108.796875 C 38.992188 -108.921875 41.453125 -108.984375 43.453125 -108.984375 C 45.460938 -108.984375 46.957031 -109.046875 47.9375 -109.171875 C 49.269531 -109.285156 50.601562 -109.34375 51.9375 -109.34375 C 53.28125 -109.34375 54.679688 -109.40625 56.140625 -109.53125 Z M 84.015625 -105.15625 C 81.828125 -105.644531 80.488281 -105.644531 80 -105.15625 C 79.757812 -104.664062 79.457031 -104.546875 79.09375 -104.796875 L 78.546875 -104.96875 L 78.546875 -103.875 C 78.546875 -102.300781 79.210938 -101.179688 80.546875 -100.515625 C 81.890625 -99.847656 84.320312 -99.453125 87.84375 -99.328125 C 88.8125 -99.328125 89.722656 -99.328125 90.578125 -99.328125 C 91.429688 -99.328125 92.160156 -99.390625 92.765625 -99.515625 C 94.953125 -99.753906 96.289062 -100.300781 96.78125 -101.15625 C 96.78125 -101.632812 96.65625 -102 96.40625 -102.25 C 95.925781 -103.09375 95.015625 -103.632812 93.671875 -103.875 C 92.335938 -104.238281 91.09375 -104.484375 89.9375 -104.609375 C 88.78125 -104.734375 87.71875 -104.796875 86.75 -104.796875 C 86.507812 -104.796875 86.144531 -104.820312 85.65625 -104.875 C 85.164062 -104.9375 84.617188 -105.03125 84.015625 -105.15625 Z M 84.015625 -105.15625 "/></g></g></g><g fill="#5324fd" fill-opacity="1"><g transform="translate(160.997557, 310.245497)"><g><path d="M 48.359375 -88.875 L 65.359375 -88.875 C 70.679688 -88.875 74.84375 -88.847656 77.84375 -88.796875 C 80.851562 -88.742188 82.753906 -88.671875 83.546875 -88.578125 C 85.023438 -88.378906 86.28125 -88.226562 87.3125 -88.125 C 88.351562 -88.03125 89.171875 -87.882812 89.765625 -87.6875 C 91.535156 -87.289062 92.914062 -85.710938 93.90625 -82.953125 C 94.101562 -82.554688 94.25 -82.015625 94.34375 -81.328125 C 94.4375 -80.640625 94.484375 -79.925781 94.484375 -79.1875 C 94.484375 -78.445312 94.484375 -77.726562 94.484375 -77.03125 C 94.484375 -76.34375 94.390625 -75.851562 94.203125 -75.5625 C 93.898438 -73.789062 92.957031 -72.285156 91.375 -71.046875 C 89.800781 -69.816406 87.976562 -68.832031 85.90625 -68.09375 C 83.84375 -67.351562 81.722656 -66.8125 79.546875 -66.46875 C 77.378906 -66.125 75.507812 -65.898438 73.9375 -65.796875 C 71.96875 -65.703125 70.242188 -65.554688 68.765625 -65.359375 C 67.679688 -65.160156 67.015625 -64.960938 66.765625 -64.765625 C 66.515625 -64.566406 66.242188 -64.078125 65.953125 -63.296875 C 65.847656 -62.898438 65.75 -61.863281 65.65625 -60.1875 C 65.5625 -58.507812 65.515625 -56.335938 65.515625 -53.671875 C 65.515625 -51.015625 65.515625 -47.910156 65.515625 -44.359375 C 65.515625 -40.804688 65.515625 -36.960938 65.515625 -32.828125 L 65.796875 -10.0625 L 65.359375 -8.421875 C 64.867188 -7.046875 64.351562 -5.71875 63.8125 -4.4375 C 63.269531 -3.15625 62.503906 -1.972656 61.515625 -0.890625 C 60.828125 -0.0976562 59.941406 0.492188 58.859375 0.890625 C 57.773438 1.285156 56.441406 1.628906 54.859375 1.921875 C 50.722656 2.410156 46.632812 2.015625 42.59375 0.734375 C 38.050781 -0.742188 35.335938 -3.945312 34.453125 -8.875 C 34.160156 -11.144531 34.457031 -15.484375 35.34375 -21.890625 C 35.9375 -25.140625 36.234375 -29.128906 36.234375 -33.859375 C 36.429688 -35.242188 36.550781 -37.09375 36.59375 -39.40625 C 36.644531 -41.726562 36.625 -44.460938 36.53125 -47.609375 C 36.53125 -49.191406 36.503906 -50.769531 36.453125 -52.34375 C 36.398438 -53.925781 36.375 -55.359375 36.375 -56.640625 C 36.375 -57.921875 36.347656 -59.003906 36.296875 -59.890625 C 36.253906 -60.773438 36.234375 -61.316406 36.234375 -61.515625 C 35.929688 -62.597656 35.265625 -63.3125 34.234375 -63.65625 C 33.203125 -64 31.007812 -64.171875 27.65625 -64.171875 C 19.175781 -64.171875 13.3125 -64.664062 10.0625 -65.65625 C 7.394531 -66.445312 5.59375 -68.097656 4.65625 -70.609375 C 3.71875 -73.117188 3.25 -75.609375 3.25 -78.078125 C 3.25 -78.671875 3.296875 -79.4375 3.390625 -80.375 C 3.492188 -81.3125 3.664062 -82.242188 3.90625 -83.171875 C 4.15625 -84.109375 4.523438 -84.945312 5.015625 -85.6875 C 5.515625 -86.425781 6.160156 -86.847656 6.953125 -86.953125 C 7.835938 -87.148438 9.09375 -87.296875 10.71875 -87.390625 C 12.34375 -87.492188 14.335938 -87.59375 16.703125 -87.6875 C 18.679688 -87.882812 20.457031 -87.984375 22.03125 -87.984375 C 23.613281 -87.984375 24.992188 -88.035156 26.171875 -88.140625 C 27.253906 -88.234375 28.460938 -88.28125 29.796875 -88.28125 C 31.128906 -88.28125 32.632812 -88.328125 34.3125 -88.421875 C 37.851562 -88.617188 42.535156 -88.769531 48.359375 -88.875 Z M 83.109375 -87.25 C 82.609375 -87.25 82.1875 -87.25 81.84375 -87.25 C 81.5 -87.25 81.082031 -87.148438 80.59375 -86.953125 C 80.101562 -86.953125 79.507812 -86.800781 78.8125 -86.5 C 78.125 -86.207031 77.78125 -86.015625 77.78125 -85.921875 C 77.78125 -85.722656 77.878906 -85.523438 78.078125 -85.328125 C 79.066406 -84.441406 81.234375 -83.847656 84.578125 -83.546875 C 85.078125 -83.453125 85.519531 -83.425781 85.90625 -83.46875 C 86.300781 -83.519531 86.648438 -83.597656 86.953125 -83.703125 C 87.929688 -84.085938 88.421875 -84.476562 88.421875 -84.875 C 88.421875 -85.269531 88.222656 -85.613281 87.828125 -85.90625 C 87.441406 -86.207031 86.953125 -86.457031 86.359375 -86.65625 C 85.765625 -86.851562 85.171875 -87 84.578125 -87.09375 C 83.992188 -87.195312 83.503906 -87.25 83.109375 -87.25 Z M 83.109375 -87.25 "/></g></g></g></svg>