<svg xmlns="http://www.w3.org/2000/svg" xmlns:xlink="http://www.w3.org/1999/xlink" width="500" zoomAndPan="magnify" viewBox="0 0 375 374.999991" height="500" preserveAspectRatio="xMidYMid meet" version="1.0"><defs><filter x="0%" y="0%" width="100%" height="100%" id="402ded35d9"><feColorMatrix values="0 0 0 0 1 0 0 0 0 1 0 0 0 0 1 0 0 0 1 0" color-interpolation-filters="sRGB"/></filter><g/><clipPath id="2f10413467"><path d="M 54.027344 65 L 336 65 L 336 328 L 54.027344 328 Z M 54.027344 65 " clip-rule="nonzero"/></clipPath><mask id="67b61743e4"><g filter="url(#402ded35d9)"><rect x="-37.5" width="450" fill="#000000" y="-37.499999" height="449.999989" fill-opacity="0.76"/></g></mask><clipPath id="8b8821c785"><rect x="0" width="195" y="0" height="350"/></clipPath></defs><g clip-path="url(#2f10413467)"><path fill="#f79a6e" d="M 332.351562 229.0625 L 326.980469 245.980469 C 312.746094 279.246094 288.75 302.828125 254.992188 316.734375 C 221.042969 330.578125 184.90625 330.832031 146.582031 317.503906 C 110.421875 303.042969 84.296875 279.804688 68.203125 247.792969 C 63.066406 237.457031 59.382812 226.65625 57.152344 215.390625 L 55.027344 198.324219 C 54.378906 186.78125 55.4375 175.144531 58.203125 163.425781 C 67.789062 127.71875 88.332031 101.019531 119.832031 83.324219 C 151.332031 65.632812 186.605469 60.980469 225.65625 69.371094 C 264.269531 79.574219 293.613281 99.699219 313.683594 129.738281 C 333.753906 159.777344 339.980469 192.886719 332.351562 229.0625 " fill-opacity="1" fill-rule="nonzero"/></g><g mask="url(#67b61743e4)"><g transform="matrix(1, 0, 0, 1, 102, 13)"><g clip-path="url(#8b8821c785)"><path fill="#ffde59" d="M 50.109375 248.710938 C 37.375 217.289062 34.578125 190.191406 57.34375 165.929688 C 74.417969 143.652344 119.019531 121.453125 122.882812 93.316406 C 130.890625 35.53125 56.152344 50.59375 62.132812 92.484375 C 65.195312 113.835938 56.363281 122.59375 40.472656 130.019531 C 18.902344 140.136719 3.882812 139.898438 1.828125 85.953125 C 0.433594 48.925781 28.488281 15.390625 64.523438 8.871094 C 107.976562 -2.992188 175.191406 17.296875 190.128906 62.253906 C 201.164062 94.746094 186.054688 134.488281 155.550781 156.246094 C 107.921875 190.257812 86.914062 198.851562 86.828125 240.105469 C 86.765625 259.867188 57.820312 267.695312 50.109375 248.710938 Z M 50.109375 248.710938 " fill-opacity="1" fill-rule="nonzero"/><path fill="#ffde59" d="M 113.753906 302.1875 C 116.488281 312.03125 115.953125 323.164062 110.324219 331.933594 C 98.152344 351.003906 75.988281 348.625 58.5 341.335938 C 43.648438 335.179688 37.703125 316.722656 44.242188 302.507812 C 52.074219 285.515625 65.28125 276.945312 80.1875 277.574219 C 100.117188 278.40625 108.898438 284.679688 113.753906 302.1875 Z M 113.753906 302.1875 " fill-opacity="1" fill-rule="nonzero"/></g></g></g><g fill="#357b6f" fill-opacity="1"><g transform="translate(42.603484, 242.162363)"><g><path d="M 80.796875 -103.796875 L 79.828125 -9.984375 L 74.6875 -3.328125 L 79.546875 3.875 L 57.65625 14 L 42.546875 -0.421875 L 12.609375 0 L 3.46875 -5.265625 L 2.765625 -103.234375 L 7.0625 -110.171875 L 74.28125 -110.859375 Z M 51.546875 -85.640625 L 31.734375 -84.25 L 32.5625 -23.5625 L 51.40625 -22.3125 Z M 51.546875 -85.640625 "/></g></g></g><g fill="#357b6f" fill-opacity="1"><g transform="translate(164.310229, 328.361917)"><g><path d="M 2.46875 -98.1875 L 71.609375 -98.1875 L 70.5 -74.203125 L 50.9375 -73.34375 L 48.234375 -2.09375 L 22.515625 0.375 L 23.140625 -73.453125 L 2.578125 -74.4375 Z M 2.46875 -98.1875 "/></g></g></g><g fill="#357b6f" fill-opacity="1"><g transform="translate(126.203214, 225.093017)"><g><path d="M 52 -99.609375 L 73.671875 -100.234375 L 72.421875 -9.390625 L 67.78125 -0.5 L 12.28125 -0.125 L 4.015625 -4.890625 L 2.5 -100.609375 L 24.0625 -100.609375 L 28.8125 -96.234375 L 30.328125 -23.9375 L 46.734375 -22.796875 L 47.484375 -94.84375 Z M 52 -99.609375 "/></g></g></g><g fill="#357b6f" fill-opacity="1"><g transform="translate(202.417227, 223.393696)"><g><path d="M 3.109375 -94.390625 L 29.078125 -95.234375 L 25.84375 -2.390625 L 2.390625 0.125 Z M 3.109375 -94.390625 "/></g></g></g><g fill="#357b6f" fill-opacity="1"><g transform="translate(233.894315, 255.347422)"><g><path d="M 87.328125 -29.671875 L 90.125 -0.3125 L 9.171875 -1.25 L 3.109375 -5.4375 L 4.34375 -33.40625 L 47.234375 -90.59375 L 4.8125 -93.546875 L 4.203125 -124.625 L 87.796875 -120.109375 L 89.8125 -89.34375 L 46 -31.703125 Z M 87.328125 -29.671875 "/></g></g></g><g fill="#357b6f" fill-opacity="1"><g transform="translate(136.445753, 314.646926)"><g><path d="M 2.75 -83.5625 L 25.734375 -84.296875 L 22.875 -2.125 L 2.125 0.109375 Z M 2.75 -83.5625 "/></g></g></g></svg>